<svg xmlns="http://www.w3.org/2000/svg" width="336" height="88" viewBox="0 0 336 88" role="img" aria-label="Classroom by Kunfupay">
  <title>Kunfupay Classroom — lockup (isotipo Tatami + wordmark "Classroom" + firma "by Kunfupay")</title>
  <defs>
    <style>
      @import url('https://fonts.googleapis.com/css2?family=Plus+Jakarta+Sans:wght@800&amp;display=swap');
    </style>
    <linearGradient id="tatGrad" x1="0" y1="0" x2="1" y2="1">
      <stop offset="0" stop-color="#734bfc"/>
      <stop offset="1" stop-color="#5c21e0"/>
    </linearGradient>
    <linearGradient id="tatEdge" x1="0" y1="0" x2="0" y2="1">
      <stop offset="0" stop-color="#ffffff" stop-opacity=".22"/>
      <stop offset=".18" stop-color="#ffffff" stop-opacity="0"/>
    </linearGradient>
  </defs>

  <!-- Isotipo Tatami (torii), escalado desde el original 512x512 a 64x64 -->
  <g transform="translate(12,12) scale(0.125)">
    <rect x="0" y="0" width="512" height="512" rx="116" fill="url(#tatGrad)"/>
    <rect x="0" y="0" width="512" height="512" rx="116" fill="url(#tatEdge)"/>
    <g fill="#ffffff">
      <path d="M104 150
               C104 150 162 124 256 124
               C350 124 408 150 408 150
               L408 178
               C408 178 350 160 256 160
               C162 160 104 178 104 178
               Z"/>
      <rect x="138" y="206" width="236" height="34" rx="6"/>
      <path d="M168 178 L200 178 L208 392 L160 392 Z"/>
      <path d="M312 178 L344 178 L352 392 L304 392 Z"/>
    </g>
  </g>

  <!-- Wordmark "Classroom": tipografia oficial Kunfupay (Plus Jakarta Sans), mismo tamano que antes -->
  <text x="88" y="42" font-family="'Plus Jakarta Sans', 'Segoe UI', sans-serif" font-weight="800" font-size="27" fill="#15122f">Classroom</text>

  <text x="88" y="64" font-family="'Geist', 'Segoe UI', sans-serif" font-weight="500" font-size="15" fill="#53587a">by</text>

  <!-- "Kunfupay": paths vectorizados extraidos del lockup oficial (kunfupay-logo-lockup-oscuro.svg), NO texto vivo -->
  <g transform="translate(108,64) scale(0.0839) translate(-394,-220)" fill="#15122f">
    <path d="M986.296 165.157V184.732C986.296 198.545 986.296 198.546 1000.2 200.226C1000.74 200.292 1001.3 200.281 1001.85 200.308C1013.78 200.88 1019.64 196.885 1022.51 185.439C1026.13 170.999 1025.92 156.331 1023.19 141.832C1021.14 130.882 1016.87 127.629 1005.67 128.283C1000.36 128.592 995.154 130.828 989.93 132.292C987.101 133.086 986.128 134.911 986.21 137.971C986.453 147.028 986.297 156.094 986.296 165.157ZM957 107.74C963.81 107.74 970.234 107.504 976.618 107.901C978.268 108.002 980.077 109.851 981.302 111.316C982.666 112.947 983.445 115.056 984.016 116.102C991.069 112.901 997.649 108.269 1004.85 106.949C1027.32 102.829 1045.94 112.096 1051.59 135.376C1055.82 152.813 1056.29 170.327 1052.04 187.613C1044.71 217.421 1020.51 224.58 995.9 220.62C992.866 220.131 989.88 219.367 986.302 218.61V260H957V107.74Z"/>
    <path d="M1174 107.038C1184.38 107.038 1194.07 106.882 1203.74 107.203C1205.21 107.253 1207.47 109.262 1207.91 110.787C1214.37 133.131 1220.58 155.549 1226.87 177.942C1227.35 179.636 1227.97 181.289 1229.53 183.006C1235.48 157.875 1241.44 132.745 1247.45 107.364H1279C1276.54 115.38 1274.15 123.246 1271.71 131.095C1260.96 165.638 1250.08 200.139 1239.49 234.728C1231.88 259.545 1215.49 263.895 1194.28 261.373C1189.45 260.798 1184.74 259.28 1179.78 258.153V236.14C1185.7 237.057 1191.5 238.271 1197.35 238.79C1206.29 239.582 1210.28 236.907 1213.78 228.513C1216.57 221.799 1217.37 215.509 1214.3 208.115C1201.08 176.19 1188.58 143.966 1175.83 111.85C1175.29 110.513 1174.8 109.162 1174 107.038Z"/>
    <path d="M631 107.051C638.348 107.051 645.254 106.88 652.139 107.192C653.559 107.257 655.42 108.843 656.166 110.226C657.614 112.917 658.417 115.96 659.266 118.26C667.135 114.604 674.606 110.509 682.512 107.624C691.582 104.313 701.113 104.069 710.384 107.271C722.902 111.594 727.473 121.982 727.702 133.909C728.247 162.469 727.878 191.047 727.878 220H698.607C698.511 218.018 698.339 216.073 698.337 214.128C698.317 191.208 698.332 168.288 698.321 145.367C698.315 131.558 693.701 127.785 680.094 130.431C678.848 130.673 677.614 130.969 676.374 131.241C661.976 134.406 660.419 136.325 660.419 150.905C660.419 173.801 660.419 196.698 660.419 219.989H631V107.051Z"/>
    <path d="M1135.42 166.97C1129.93 166.97 1125.17 166.533 1120.52 167.052C1106.69 168.593 1100.77 177.635 1104.24 191.148C1105.65 196.611 1109.03 200.041 1114.63 199.551C1120.67 199.022 1126.65 197.507 1132.54 195.995C1133.75 195.684 1135.25 193.508 1135.29 192.152C1135.55 183.865 1135.42 175.565 1135.42 166.97ZM1135.11 150.366C1136.41 132.344 1132.52 128.325 1115.38 130.295C1104.96 131.494 1094.65 133.654 1083.92 135.444C1083.92 129.075 1083.8 122.374 1084.04 115.685C1084.08 114.499 1085.43 112.646 1086.53 112.32C1104.15 107.13 1122.01 103.867 1140.39 107.623C1155.46 110.703 1164.43 120.321 1164.72 135.546C1165.25 163.514 1164.87 191.499 1164.87 219.88H1139.39C1138.37 217.034 1137.24 213.883 1135.92 210.213C1128.08 217.102 1119.29 220.908 1109.15 221.815C1089.26 223.597 1075.42 212.384 1074.15 192.491C1073.75 186.251 1074.1 179.665 1075.7 173.658C1079.09 160.937 1088.75 154.365 1101.15 151.752C1106.26 150.676 1111.61 150.606 1116.87 150.417C1122.84 150.202 1128.83 150.366 1135.11 150.366Z"/>
    <path d="M504.422 108H533.666C533.666 110.223 533.666 112.175 533.666 114.125C533.666 137.039 533.655 159.952 533.682 182.865C533.686 185.406 533.618 188.006 534.112 190.473C534.885 194.344 537.149 196.925 541.426 197.38C550.354 198.326 558.312 195.419 565.728 190.994C567.038 190.215 567.637 187.347 567.649 185.439C567.775 161.799 567.731 138.158 567.731 114.518C567.731 112.526 567.731 110.533 567.731 108.131H597V219.874H572.844C571.533 216.164 570.22 212.44 569.044 209.109C562.286 212.606 555.815 216.506 548.915 219.384C540.801 222.766 532.223 222.639 523.736 220.317C512.648 217.282 504.703 208.159 504.524 196.653C504.074 167.749 504.13 138.838 504 109.929C503.998 109.41 504.22 108.891 504.422 108Z"/>
    <path d="M892.648 108H922V220.33C914.672 220.33 907.27 220.432 899.877 220.207C898.913 220.178 897.628 218.635 897.137 217.513C895.929 214.751 895.096 211.827 893.953 208.504C891.528 210.201 889.525 211.667 887.459 213.038C877.776 219.472 867.342 223.057 855.496 221.724C839.362 219.91 830.265 210.572 829.118 194.344C828.964 192.167 829.006 189.975 829.004 187.79C828.998 161.387 829 134.986 829 108.163H858.733V113.754C858.733 137.067 858.728 160.38 858.736 183.692C858.741 195.817 861.698 198.519 873.788 197.474C874.693 197.396 875.611 197.33 876.489 197.121C891.642 193.509 892.648 192.224 892.648 176.595C892.648 155.831 892.648 135.069 892.648 114.306V108Z"/>
    <path d="M825 70.3732V91.6241C818.569 90.6128 812.463 89.4025 806.296 88.7347C794.836 87.494 791.078 90.9714 791.081 102.287C791.081 103.72 791.081 105.153 791.081 107.158H816.606C815.712 113.502 815.094 119.248 813.927 124.881C813.722 125.864 811.223 126.943 809.746 127.001C803.727 127.241 797.693 127.101 791.23 127.101V220H761.378V127.441H742V107.428H760.591C761.11 101.12 761.179 95.3068 762.134 89.642C764.407 76.1519 773.016 68.7498 786.182 65.9517C796.952 63.6642 815.191 65.6412 825 70.3732Z"/>
    <path d="M423 220H394V67H423V220Z"/>
    <path d="M484.953 107.019C475.596 122.397 467.007 136.815 458.05 150.994C456.07 154.129 456.252 156.397 457.813 159.404C467.389 177.865 476.841 196.396 486.328 214.906C487.145 216.501 487.911 218.122 489 220.339C478.304 220.96 468.128 221.644 457.943 221.999C456.871 222.038 455.272 220.352 454.698 219.098C445.502 199.03 436.395 178.92 427.423 158.749C426.809 157.369 426.874 155.147 427.547 153.788C434.837 139.067 442.274 124.422 449.807 109.828C450.432 108.619 452.042 107.165 453.221 107.141C463.466 106.93 473.717 107.019 484.953 107.019Z"/>
  </g>
</svg>
